<?xml version="1.0" standalone="no"?>
<!DOCTYPE svg PUBLIC "-//W3C//DTD SVG 20010904//EN"
 "http://www.w3.org/TR/2001/REC-SVG-20010904/DTD/svg10.dtd">
<svg version="1.0" xmlns="http://www.w3.org/2000/svg"
 width="1024.000000pt" height="1024.000000pt" viewBox="0 0 1024.000000 1024.000000"
 preserveAspectRatio="xMidYMid meet">
<metadata>
Created by potrace 1.11, written by Peter Selinger 2001-2013
</metadata>
<g transform="translate(0.000000,1024.000000) scale(0.100000,-0.100000)"
fill="#000000" stroke="none">
<path d="M5214 10232 c3 -6 20 -13 37 -17 l30 -7 -38 -19 c-20 -10 -54 -19
-75 -19 -51 0 -96 -21 -131 -59 -16 -17 -39 -34 -52 -37 -12 -3 -37 -25 -56
-50 -30 -40 -59 -57 -59 -35 0 7 -151 36 -154 29 -9 -25 -27 -44 -44 -46 -29
-4 -17 -32 15 -32 13 0 33 -5 44 -11 20 -10 20 -11 2 -24 -10 -7 -25 -10 -33
-6 -22 10 -83 -2 -88 -17 -3 -11 0 -11 16 -1 20 13 56 6 50 -10 -6 -19 -134
-123 -168 -138 -19 -9 -43 -19 -52 -24 -10 -5 -26 -9 -35 -9 -16 1 -16 2 -2
13 9 7 19 21 23 32 8 26 36 58 61 73 19 11 19 11 -5 12 -31 0 -106 -77 -139
-144 -25 -51 -72 -101 -106 -112 -11 -4 -22 -9 -25 -13 -23 -28 -121 -100
-140 -103 -21 -2 -26 -10 -31 -43 -9 -60 -24 -90 -58 -115 -17 -12 -31 -19
-31 -15 0 3 -10 0 -22 -7 -13 -7 -27 -11 -31 -10 -13 4 -47 -80 -47 -117 0
-19 7 -43 17 -53 19 -22 13 -38 -47 -113 -59 -74 -88 -169 -92 -308 -2 -55 2
-81 11 -86 8 -5 16 -50 22 -127 5 -65 11 -135 13 -154 7 -67 46 -315 57 -360
6 -25 14 -67 18 -95 4 -27 12 -60 19 -72 7 -12 12 -31 12 -42 0 -18 36 -102
118 -271 14 -30 34 -64 43 -75 17 -19 45 -86 56 -132 3 -12 17 -26 34 -32 16
-5 29 -17 29 -25 0 -19 12 -20 28 -4 15 15 15 51 0 66 -6 6 -8 15 -4 19 11 12
60 -23 75 -54 31 -66 64 -102 120 -131 72 -39 82 -51 115 -137 63 -164 102
-209 210 -245 71 -23 87 -40 83 -86 -4 -46 11 -116 30 -137 15 -16 26 -18 73
-12 30 4 111 8 180 10 77 1 146 9 180 18 30 9 66 19 80 21 43 9 88 44 126 96
21 29 61 66 93 87 79 50 118 89 156 158 40 74 104 191 121 224 7 14 39 51 70
84 l58 59 54 -5 c95 -10 143 -58 182 -182 7 -22 23 -71 36 -110 18 -56 21 -79
15 -113 -5 -24 -14 -49 -20 -55 -6 -6 -11 -17 -11 -24 0 -25 39 -13 74 22 20
19 38 35 41 35 4 0 46 -19 93 -43 48 -23 114 -51 147 -61 141 -44 179 -58 216
-77 21 -10 80 -35 131 -53 129 -47 203 -88 242 -132 27 -30 32 -42 25 -56 -5
-10 -13 -18 -17 -19 -30 -3 -47 -10 -50 -19 -3 -7 -17 -24 -32 -39 -15 -14
-31 -37 -35 -51 -4 -14 -13 -29 -20 -35 -18 -16 -35 -64 -25 -70 5 -3 -4 -25
-19 -48 -40 -59 -46 -92 -22 -116 13 -13 17 -27 13 -46 -3 -19 0 -32 12 -40
14 -11 15 -17 5 -39 -10 -21 -9 -29 4 -44 21 -23 21 -39 2 -58 -11 -12 -12
-20 -5 -35 7 -13 7 -19 0 -19 -5 0 -10 7 -10 15 0 8 -7 15 -15 15 -8 0 -15 5
-15 12 0 6 -6 19 -14 27 -8 9 -27 41 -44 71 -16 30 -41 76 -55 102 -36 65 -90
196 -94 227 -7 65 -17 97 -35 113 -22 19 -90 173 -80 182 7 8 -34 89 -63 124
-11 13 -43 37 -72 53 -45 26 -62 30 -110 28 -55 -3 -58 -1 -67 24 -24 68 -63
-15 -51 -110 4 -33 2 -65 -6 -86 -9 -26 -9 -42 -1 -66 13 -37 0 -72 -37 -103
-12 -10 -21 -24 -21 -31 0 -7 -14 -23 -31 -36 -16 -12 -35 -33 -41 -47 -6 -13
-19 -24 -27 -24 -9 0 -29 -10 -44 -22 -39 -31 -126 -67 -165 -68 -18 0 -52 11
-75 24 -49 28 -135 46 -221 46 -68 0 -106 -8 -106 -21 0 -17 65 -111 108 -157
45 -49 50 -63 27 -82 -8 -7 -15 -19 -15 -26 0 -9 -12 -14 -34 -14 -22 0 -38
-7 -47 -19 -10 -15 -31 -22 -76 -26 -60 -6 -63 -5 -75 19 -6 15 -14 26 -17 26
-17 0 -81 -69 -87 -92 -4 -20 -12 -28 -28 -28 -28 0 -66 -39 -66 -69 0 -15 -5
-21 -17 -19 -14 3 -18 -7 -20 -62 -6 -128 -9 -141 -48 -220 -22 -46 -47 -140
-41 -157 4 -9 -1 -24 -10 -34 -16 -18 -16 -20 -1 -37 23 -25 21 -41 -8 -64
-14 -11 -25 -28 -25 -39 0 -10 -4 -19 -10 -19 -5 0 -9 9 -7 21 3 30 -31 50
-44 26 -18 -31 -49 -19 -101 38 -28 31 -70 67 -93 81 -24 14 -46 31 -49 39 -7
18 -36 20 -37 3 -5 -54 45 -122 143 -193 37 -27 68 -52 68 -55 0 -3 13 -14 30
-23 16 -10 33 -29 36 -43 4 -13 15 -29 25 -35 23 -12 25 -56 4 -83 -8 -11 -12
-29 -9 -41 6 -23 -24 -52 -69 -68 -26 -9 -32 -35 -13 -56 21 -23 20 -44 -4
-66 -17 -16 -23 -16 -52 -4 -18 7 -50 30 -70 51 -70 71 -67 29 3 -52 32 -36
37 -60 13 -60 -40 0 -319 261 -417 390 -89 117 -93 129 -55 181 28 38 36 207
12 279 -20 61 -40 90 -52 73 -4 -7 -9 -83 -10 -169 -2 -101 -7 -166 -15 -183
-14 -28 -30 -31 -118 -16 -45 7 -46 7 -63 -28 -22 -49 -63 -80 -86 -67 -19 10
-20 73 -6 374 8 149 6 156 -43 156 -21 0 -105 7 -187 16 -140 14 -149 14 -161
-2 -9 -12 -13 -56 -13 -138 0 -139 -17 -446 -25 -468 -4 -9 -17 -20 -30 -26
-31 -14 -60 10 -51 42 4 12 9 144 13 294 7 307 11 291 -67 293 -80 2 -94 10
-102 59 -12 68 -3 73 124 66 59 -3 117 -10 129 -16 23 -13 261 -39 355 -40
l62 0 6 43 c9 58 24 65 125 58 95 -7 100 -4 82 62 -16 60 -41 246 -41 303 0
61 -6 70 -50 79 -45 9 -57 20 -82 69 -17 34 -19 51 -14 114 4 41 14 93 21 116
36 103 10 167 -68 166 -101 -1 -691 34 -772 45 -22 3 -121 10 -220 16 -155 8
-317 20 -444 34 -46 4 -52 13 -58 84 -3 34 -10 64 -14 67 -14 8 -10 54 4 60 8
3 26 0 41 -6 21 -7 32 -7 42 1 13 11 97 10 374 -6 52 -3 217 -12 365 -20 149
-9 324 -20 390 -25 66 -5 154 -11 195 -12 69 -3 75 -1 75 17 0 13 -7 21 -20
22 -90 9 -323 24 -426 29 -70 3 -178 9 -240 15 -63 5 -179 11 -259 14 -80 3
-154 8 -165 11 -11 3 -74 7 -140 10 -86 3 -123 8 -130 18 -9 12 -15 12 -35 1
-16 -9 -41 -12 -70 -8 -52 7 -71 18 -63 39 6 17 133 20 150 3 8 -8 20 -9 43
-1 22 8 62 8 138 1 59 -5 116 -8 127 -5 11 3 61 1 110 -5 50 -5 180 -13 290
-19 220 -10 298 -15 487 -31 137 -11 168 -5 168 32 0 11 -14 34 -30 51 -24 23
-36 28 -53 23 -12 -5 -55 -10 -96 -12 -58 -4 -86 0 -132 17 -44 16 -63 18 -78
11 -28 -16 -198 -18 -213 -3 -15 15 -54 16 -63 2 -10 -16 -178 -12 -201 5 -24
18 -45 19 -77 2 -28 -15 -152 -6 -188 13 -24 13 -66 13 -75 -1 -11 -18 -162
-5 -201 17 -30 18 -34 18 -60 2 -35 -20 -158 -14 -186 10 -9 8 -42 19 -73 23
-37 5 -65 15 -80 30 -21 19 -27 21 -49 11 -40 -18 -191 -16 -199 3 -6 17 -42
20 -51 5 -10 -16 -186 -1 -207 18 -15 13 -21 13 -50 0 -43 -20 -175 -13 -201
10 -15 13 -23 14 -51 4 -43 -16 -181 3 -214 29 -21 16 -27 17 -45 5 -12 -8
-59 -17 -104 -21 -72 -6 -85 -5 -110 13 -27 19 -30 19 -59 3 -27 -15 -43 -15
-145 -5 -140 14 -175 21 -217 42 -30 16 -34 16 -60 0 -15 -10 -42 -25 -61 -34
-19 -8 -40 -21 -46 -28 -7 -7 -27 -25 -45 -40 -40 -33 -30 -52 20 -35 25 9 59
9 139 0 58 -6 168 -11 243 -11 177 0 220 -17 171 -65 -17 -17 -42 -17 -203 0
-19 2 -145 6 -280 10 -135 3 -253 8 -262 11 -15 4 -18 -1 -18 -34 l0 -40 58
-5 c31 -3 187 -11 347 -17 160 -6 309 -13 333 -16 l42 -5 0 -69 c0 -38 -4 -80
-10 -94 -9 -25 -12 -26 -97 -26 -49 0 -198 7 -333 15 -135 8 -266 15 -292 15
l-48 0 0 -1650 0 -1651 32 5 c18 3 84 10 146 17 170 18 156 31 -45 45 -108 7
-133 18 -60 27 23 3 62 10 87 16 44 11 135 24 253 36 31 4 63 13 71 20 29 29
46 381 66 1380 12 561 19 733 32 768 20 51 105 48 162 -6 19 -18 44 -39 56
-47 22 -15 22 -20 20 -180 -1 -91 -3 -304 -5 -475 -2 -336 -11 -540 -27 -623
-7 -39 -6 -66 3 -103 13 -50 7 -122 -23 -297 -15 -80 -4 -95 46 -68 35 19 56
15 56 -8 0 -8 -7 -19 -14 -26 -8 -6 -22 -34 -32 -62 -9 -28 -24 -52 -33 -55
-9 -2 -21 -15 -28 -29 -10 -21 -9 -25 2 -20 7 2 16 -2 19 -10 6 -16 -2 -269
-11 -334 -3 -25 -7 -64 -8 -88 -2 -27 -10 -51 -23 -65 -11 -12 -25 -34 -31
-49 -15 -41 2 -48 89 -37 78 10 153 11 207 2 26 -4 33 -10 33 -28 0 -28 -17
-35 -80 -35 -85 0 -117 -23 -104 -76 5 -21 12 -24 50 -24 58 0 62 -14 28 -81
-84 -167 -191 -556 -209 -765 -4 -40 -13 -84 -21 -99 -8 -15 -14 -56 -14 -91
0 -75 2 -73 -120 -93 -41 -6 -109 -19 -151 -27 -41 -8 -136 -21 -210 -30 -74
-8 -151 -17 -171 -21 l-38 -5 0 -402 c0 -397 0 -401 21 -414 16 -11 20 -21 17
-48 -3 -27 0 -34 13 -34 18 0 44 -21 51 -40 2 -6 32 -12 67 -15 62 -4 65 -3
111 36 30 25 50 51 54 70 4 20 11 29 25 29 27 0 35 17 32 62 l-3 38 41 0 c35
0 41 -3 41 -22 0 -12 8 -30 17 -41 13 -14 14 -21 6 -24 -30 -11 -88 -67 -89
-86 -2 -56 -28 -126 -51 -136 -35 -16 -28 -39 15 -50 20 -6 44 -11 53 -11 31
0 38 -59 16 -120 -27 -71 -40 -91 -56 -84 -32 13 -45 8 -59 -19 -18 -37 -9
-45 19 -18 42 39 49 29 49 -66 0 -77 2 -85 14 -68 7 11 16 36 20 55 37 195 97
284 264 393 176 115 337 172 622 218 101 16 158 19 295 16 211 -5 336 -25 505
-83 206 -71 410 -198 475 -298 19 -28 12 -66 -11 -66 -8 0 -14 -6 -15 -12 -3
-67 -13 -104 -35 -134 -25 -32 -26 -39 -22 -119 4 -72 2 -88 -13 -101 -10 -9
-27 -41 -40 -72 -12 -31 -27 -61 -34 -67 -29 -25 -42 -61 -38 -103 l5 -42
3413 0 3414 0 -1 63 c-2 68 5 128 16 146 14 22 28 11 26 -22 -4 -68 -1 -77 24
-77 13 0 29 -7 36 -15 7 -8 28 -15 46 -15 27 0 34 -4 34 -20 0 -11 -9 -25 -20
-32 -11 -7 -20 -16 -20 -20 0 -5 75 -8 166 -8 108 0 163 3 159 10 -3 6 3 24
15 40 18 25 28 30 56 28 32 -2 50 -18 20 -18 -14 0 -26 -21 -26 -46 0 -12 30
-14 172 -14 149 0 174 2 191 17 18 17 19 17 32 0 8 -12 26 -17 59 -17 l46 0 0
315 c0 310 0 315 -20 315 -23 0 -39 -28 -22 -39 12 -7 32 -55 32 -77 0 -11
-10 -14 -40 -12 -40 2 -40 2 -40 44 0 37 -3 43 -22 46 -17 2 -22 9 -20 23 5
28 50 85 68 85 7 0 14 5 14 10 0 6 11 10 25 10 l25 0 0 130 c0 138 -3 145 -48
121 -9 -5 -25 -12 -35 -15 -9 -3 -22 -17 -27 -31 -11 -29 -36 -31 -53 -4 -14
22 -2 49 22 49 11 0 28 10 38 23 10 13 30 27 45 30 26 7 26 8 11 38 -12 24
-20 29 -37 25 -17 -4 -28 2 -43 22 -21 29 -20 52 3 52 16 0 44 57 44 89 0 49
67 46 73 -3 2 -17 5 12 5 65 l2 96 -27 -4 c-16 -3 -35 -7 -43 -10 -8 -4 -21
-5 -29 -4 -11 2 -10 -1 3 -14 20 -20 20 -32 1 -69 -8 -15 -15 -34 -15 -41 0
-24 -41 -65 -66 -65 -14 0 -37 -8 -51 -17 l-26 -18 6 33 c8 40 -4 41 -35 3
-27 -34 -35 -37 -66 -25 l-23 10 20 26 c12 14 21 31 21 37 0 17 -41 13 -57 -6
-13 -16 -14 -15 -9 12 25 150 31 165 65 165 14 0 32 4 40 9 12 8 12 13 -4 37
-9 15 -29 38 -44 51 l-26 24 50 -3 50 -3 1 35 c1 19 9 74 19 123 16 80 16 90
1 127 -21 53 -20 80 4 179 15 59 18 86 10 100 -18 36 -12 41 50 41 58 0 80 12
41 23 -11 3 -22 17 -26 36 -6 27 -11 31 -33 29 -27 -3 -27 -2 -26 60 1 58 0
62 -22 62 -34 0 -36 13 -9 52 20 30 22 37 10 42 -23 9 -18 56 9 81 13 12 33
46 43 74 16 46 22 53 55 62 20 5 40 14 43 19 4 6 10 8 15 5 5 -3 21 -3 35 1
22 5 24 9 13 20 -18 17 -132 -5 -136 -27 -2 -12 -19 -14 -96 -11 -110 5 -120
-1 -130 -81 -11 -83 -20 -91 -115 -95 -45 -2 -97 -1 -116 2 -31 6 -35 11 -50
64 -9 31 -27 95 -41 142 -77 263 -84 305 -59 344 16 24 17 46 11 224 -4 108
-12 229 -19 267 -6 39 -12 140 -12 225 0 89 -8 208 -18 280 -23 162 -32 431
-19 545 10 87 9 90 -14 117 -20 25 -23 36 -19 91 16 226 17 214 -10 253 -20
30 -25 49 -25 100 0 56 3 65 26 83 24 19 40 21 184 21 l156 0 60 -67 c32 -38
118 -131 190 -209 177 -190 168 -172 154 -287 -6 -52 -12 -136 -13 -185 -1
-50 -7 -96 -13 -102 -15 -15 15 -117 36 -123 8 -3 22 -8 31 -11 15 -6 15 -3 6
32 -9 33 -8 45 6 66 23 35 33 111 17 131 -10 12 -10 29 0 82 7 38 17 80 22 95
9 24 11 78 7 201 0 21 6 48 15 62 14 22 16 101 16 735 l0 710 -117 1 c-65 1
-122 1 -127 0 -5 -1 -124 3 -265 8 -141 6 -384 16 -541 22 -157 6 -316 12
-355 14 -38 2 -105 4 -147 4 -69 1 -79 3 -92 24 -8 12 -24 89 -35 172 -11 83
-24 162 -30 177 -10 27 -11 27 -45 13 -44 -19 -161 -19 -212 -2 -22 8 -52 11
-70 7 -16 -4 -38 -4 -49 0 -16 5 -9 14 41 50 32 24 73 56 89 71 17 15 44 38
62 51 18 13 53 38 78 56 37 27 49 31 60 22 8 -7 15 -20 15 -30 0 -10 6 -22 13
-28 26 -22 277 -34 777 -37 283 -1 613 -6 733 -10 l217 -8 0 60 0 60 -82 7
c-70 5 -267 6 -433 3 -22 -1 -116 3 -210 7 -119 6 -189 5 -233 -3 -52 -10 -72
-9 -121 5 -44 12 -64 13 -79 5 -12 -6 -30 -8 -44 -3 -13 4 -128 9 -256 11
-129 2 -247 7 -264 12 -21 6 -36 4 -52 -6 -15 -10 -34 -13 -54 -9 -27 6 -29 8
-19 25 7 11 18 19 25 19 7 0 15 7 19 16 3 9 16 15 32 14 72 -5 81 -2 81 30 l0
30 83 0 c70 0 84 3 94 19 10 17 63 54 290 202 12 8 60 41 108 74 48 33 104 71
125 85 20 14 57 39 80 55 24 17 53 37 66 45 217 145 304 222 304 270 0 15 9
35 20 45 11 10 20 26 20 36 0 10 -44 61 -97 113 -84 83 -95 97 -83 111 8 10
27 15 49 14 20 -1 144 2 276 6 267 9 282 7 287 -47 4 -39 20 -46 47 -19 17 17
21 34 21 81 0 57 -1 60 -25 60 -39 0 -370 58 -455 80 -19 5 -70 16 -112 25
-43 10 -83 24 -89 32 -10 11 -10 44 -1 145 7 82 7 139 1 155 -5 13 -9 44 -9
67 0 26 -6 48 -14 56 -10 8 -57 11 -148 10 -73 -1 -160 1 -193 4 -33 3 -49 2
-35 0 14 -3 31 -11 38 -17 8 -6 35 -14 60 -18 115 -19 144 -27 160 -43 16 -17
12 -17 -83 -12 -125 8 -214 8 -332 0 -82 -5 -93 -4 -93 11 0 22 99 65 153 65
49 0 78 13 52 24 -9 3 -36 6 -59 6 -30 0 -48 6 -61 20 -14 16 -31 20 -77 20
-51 0 -60 -3 -67 -22 -10 -27 -2 -207 11 -230 7 -16 24 -18 121 -18 128 0 158
-11 138 -48 -6 -12 -15 -22 -19 -22 -4 0 -29 -21 -57 -47 -54 -51 -189 -147
-380 -269 -128 -82 -542 -334 -550 -334 -2 0 -38 -20 -78 -45 -75 -45 -101
-53 -112 -35 -7 11 17 123 42 205 23 71 26 340 5 415 -12 43 -13 75 -6 155 5
55 9 145 9 200 0 87 -3 107 -26 155 -14 30 -43 78 -64 105 -22 28 -54 85 -72
128 -55 130 -164 268 -185 235 -12 -20 -57 8 -64 39 -4 15 -11 37 -17 47 -9
19 -10 18 -27 -4 -26 -34 -38 -28 -262 122 -57 38 -140 82 -253 132 -86 39
-251 124 -310 161 -81 50 -323 167 -368 178 -23 6 -132 12 -242 13 l-200 2
-26 -24 c-22 -21 -32 -24 -65 -19 -32 5 -45 2 -73 -19 -19 -14 -45 -26 -57
-26 -13 0 -26 -4 -29 -10 -14 -22 -123 -1 -160 31 -11 9 -35 20 -53 24 -18 4
-47 14 -65 23 -38 19 -153 30 -143 14z m150 -116 c11 -17 22 -23 36 -19 12 3
20 0 20 -7 0 -9 -19 -11 -76 -8 -54 4 -85 1 -105 -9 -35 -18 -134 -14 -134 5
0 29 88 60 176 61 60 1 68 -1 83 -23z m-54 -531 c0 -23 -23 -55 -40 -55 -25 0
-28 45 -3 58 15 9 43 6 43 -3z m-88 -78 c12 -19 -3 -28 -34 -21 -30 6 -31 5
-25 -24 5 -23 3 -30 -7 -26 -20 8 -146 -124 -146 -153 0 -14 3 -23 8 -21 4 2
21 10 37 17 17 7 46 22 66 32 20 11 42 19 49 19 7 0 29 16 48 36 34 35 36 36
92 30 53 -6 58 -5 63 15 4 13 12 19 24 17 19 -4 21 -23 8 -70 -7 -26 -6 -27
27 -22 29 5 35 1 56 -30 12 -20 22 -45 22 -56 0 -15 13 -26 47 -41 45 -19 48
-19 60 -3 17 24 16 41 -3 52 -9 5 -14 14 -10 21 9 15 39 14 54 -1 13 -13 17
-79 5 -77 -21 3 -34 -2 -31 -13 3 -8 20 -11 46 -10 36 3 50 -3 107 -43 47 -34
65 -53 65 -69 0 -12 11 -33 25 -46 14 -13 25 -31 25 -41 0 -18 39 -36 78 -37
13 -1 38 -12 55 -25 18 -13 48 -29 68 -36 20 -6 45 -21 54 -31 22 -25 119 -80
140 -80 9 0 26 -10 38 -23 12 -13 83 -54 157 -90 163 -81 218 -113 246 -143
12 -12 35 -29 53 -38 17 -9 31 -21 31 -26 0 -5 11 -12 25 -16 13 -3 30 -13 37
-21 7 -8 22 -19 34 -23 13 -5 24 -20 27 -38 5 -23 13 -32 37 -37 16 -4 34 -13
38 -22 10 -18 -10 -104 -32 -135 -9 -12 -13 -31 -10 -43 4 -17 -5 -32 -43 -64
-35 -32 -48 -50 -49 -72 -1 -17 -10 -36 -20 -44 -18 -14 -18 -14 3 -15 13 0
44 6 69 12 38 11 50 19 61 45 8 20 20 33 31 33 18 0 52 33 52 50 0 6 9 10 21
10 13 0 18 -4 13 -12 -9 -14 -14 -42 -15 -73 0 -18 20 -40 44 -48 12 -4 -1
-47 -14 -47 -6 0 -26 -12 -44 -26 -21 -16 -49 -27 -72 -28 -21 -1 -43 -4 -48
-7 -47 -25 -210 -53 -234 -39 -25 13 -117 13 -141 0 -11 -6 -49 -12 -85 -13
-40 -2 -71 -9 -82 -19 -14 -12 -38 -14 -111 -12 -74 3 -98 0 -118 -13 -24 -15
-27 -15 -55 6 -39 29 -60 24 -80 -18 -8 -18 -24 -38 -34 -43 -15 -9 -95 -23
-179 -31 -15 -2 -22 7 -29 36 -10 42 -23 45 -70 20 -18 -10 -41 -18 -52 -20
-11 -1 -32 -5 -47 -8 -20 -6 -29 -2 -37 14 -9 17 -21 21 -60 21 -27 0 -72 -4
-100 -10 -28 -5 -131 -11 -229 -12 -97 -2 -164 -5 -147 -6 29 -4 45 -16 45
-38 0 -6 -44 -15 -102 -22 -143 -17 -141 -17 -136 13 4 20 1 25 -15 25 -12 0
-32 -11 -46 -24 -33 -30 -110 -52 -231 -66 -151 -17 -162 -19 -156 -36 8 -22
-22 -29 -43 -10 -10 9 -27 16 -38 16 -11 0 -46 24 -77 53 l-56 52 0 72 c0 48
4 73 13 76 8 2 12 33 13 103 1 54 5 126 8 159 4 34 2 81 -5 108 -8 34 -8 56
-1 75 6 15 12 62 14 105 3 69 2 77 -15 77 -34 0 -10 84 65 232 46 92 67 144
63 157 -7 22 25 61 50 61 8 0 12 6 9 14 -8 20 48 114 98 164 73 73 84 82 107
82 17 0 21 6 21 29 0 33 20 54 44 45 11 -4 16 -1 16 11 0 18 71 92 133 138 38
29 67 30 67 4 0 -21 37 -50 55 -43 8 3 19 16 24 29 5 12 16 29 25 36 10 9 13
18 7 28 -5 9 -4 28 3 44 8 23 17 29 39 29 20 0 30 6 34 19 3 11 15 22 27 24
29 6 80 -3 88 -16z m1198 -55 c0 -5 -9 -17 -20 -27 -11 -10 -20 -22 -20 -27 0
-4 50 -6 110 -4 88 3 110 1 110 -9 0 -8 -4 -17 -10 -20 -12 -7 -131 -32 -224
-46 -81 -12 -99 -3 -62 32 14 13 26 28 26 32 0 4 -25 6 -55 4 -64 -5 -72 0
-42 22 36 27 70 40 112 44 22 2 48 4 58 5 9 1 17 -2 17 -6z m-280 -132 c0 -5
-2 -10 -4 -10 -3 0 -8 5 -11 10 -3 6 -1 10 4 10 6 0 11 -4 11 -10z m633 -54
c33 -14 37 -14 37 -1 0 29 25 13 73 -45 29 -36 47 -68 47 -84 0 -14 11 -49 24
-76 21 -43 22 -50 8 -48 -10 2 -18 -5 -20 -17 -5 -32 -34 -95 -44 -95 -5 0
-18 -15 -29 -34 -14 -25 -25 -33 -39 -29 -34 9 -49 -18 -79 -142 -6 -27 -10
-30 -41 -27 -32 3 -91 22 -132 43 -10 5 -29 9 -43 9 -24 0 -25 3 -20 34 6 32
5 34 -39 54 -31 15 -48 30 -52 47 -4 15 -13 25 -25 25 -36 0 -48 44 -53 189
-2 69 0 77 26 107 15 17 53 42 83 54 58 23 75 23 53 -2 -7 -8 -24 -27 -38 -42
-23 -27 -24 -28 -3 -17 12 6 28 19 35 29 17 25 48 41 133 68 76 24 81 24 138
0z m127 -577 c0 -5 -7 -9 -15 -9 -15 0 -20 12 -9 23 8 8 24 -1 24 -14z m-41
-33 c14 -17 8 -22 -42 -31 -29 -6 -37 -4 -37 7 0 14 33 36 56 37 6 1 17 -5 23
-13z m26 -36 c3 -5 1 -10 -4 -10 -6 0 -11 5 -11 10 0 6 2 10 4 10 3 0 8 -4 11
-10z m111 -72 c-3 -13 -6 -34 -6 -48 0 -32 -43 -55 -72 -39 -26 14 -19 41 15
57 15 7 32 22 37 33 15 27 34 24 26 -3z m9 -138 c3 -5 1 -10 -4 -10 -6 0 -11
5 -11 10 0 6 2 10 4 10 3 0 8 -4 11 -10z m805 -694 c0 -25 -4 -47 -9 -50 -5
-3 -12 -32 -16 -63 -9 -77 -20 -95 -53 -91 -48 6 -54 97 -10 160 31 45 70 88
80 88 4 0 8 -20 8 -44z m-3671 -160 c6 -25 11 -61 11 -80 0 -19 5 -38 10 -41
6 -3 10 -15 10 -26 0 -45 -40 18 -66 104 -16 51 -11 87 10 87 8 0 19 -20 25
-44z m4287 -335 c-8 -12 -46 -21 -46 -11 0 5 8 11 18 13 29 8 33 7 28 -2z
m-2846 -441 c0 -5 -2 -10 -4 -10 -3 0 -8 5 -11 10 -3 6 -1 10 4 10 6 0 11 -4
11 -10z m938 -330 c23 -22 23 -58 -1 -110 -29 -65 -58 -76 -82 -30 -27 52 -12
143 25 154 29 8 36 6 58 -14z m-798 -550 c0 -24 -4 -30 -21 -30 -13 0 -19 5
-15 13 3 6 9 20 12 30 10 27 24 20 24 -13z m104 -88 c6 -38 4 -43 -11 -40 -9
2 -16 6 -15 11 1 4 2 26 2 49 0 52 15 39 24 -20z m-264 -35 c0 -13 5 -28 11
-34 8 -8 8 -17 -1 -33 -15 -28 -6 -37 15 -16 20 20 42 20 61 1 27 -26 60 -18
83 20 24 41 44 47 35 10 -7 -27 -7 -27 75 -29 30 -1 47 -7 55 -18 20 -32 -11
-47 -104 -52 -47 -2 -106 -9 -133 -16 -26 -7 -74 -10 -106 -8 -33 2 -58 1 -55
-4 3 -4 -4 -8 -15 -8 -12 0 -36 17 -56 38 -39 42 -39 41 -25 62 9 13 14 10 35
-15 24 -29 25 -29 40 -10 10 14 13 31 9 55 -3 19 -6 40 -7 45 -1 6 5 10 13 10
8 1 24 6 35 13 29 17 35 15 35 -11z m547 -77 c58 -35 71 -97 18 -84 -14 3 -39
1 -55 -6 -26 -11 -30 -18 -30 -50 0 -22 -7 -43 -17 -53 -16 -14 -20 -14 -40 3
-26 21 -29 46 -8 70 13 14 11 20 -14 51 -34 41 -29 58 20 62 19 2 43 8 54 15
27 16 35 15 72 -8z m-327 -166 c0 -9 -7 -14 -17 -12 -25 5 -28 28 -4 28 12 0
21 -6 21 -16z m-22 -62 c30 -7 59 -15 65 -19 7 -4 37 -10 67 -14 30 -3 89 -12
130 -19 60 -10 91 -10 156 0 83 13 136 9 161 -11 20 -17 16 -38 -10 -48 -13
-5 -57 -43 -98 -84 -45 -46 -87 -78 -104 -83 -17 -3 -45 -16 -63 -26 -23 -14
-42 -18 -63 -14 -25 5 -32 2 -36 -14 -5 -17 -14 -20 -62 -20 -66 0 -82 11 -74
51 5 28 5 29 -26 18 -31 -11 -32 -18 -4 -50 12 -15 12 -19 -4 -30 -29 -21 -34
-35 -24 -62 l10 -25 -57 5 c-31 3 -62 10 -68 15 -7 4 -25 7 -42 6 -16 -1 -38
4 -47 12 -15 12 -19 12 -31 -5 -8 -10 -14 -23 -14 -28 0 -4 -7 -15 -15 -23
-27 -27 -18 -51 20 -58 30 -6 35 -11 35 -35 0 -22 7 -30 38 -44 21 -9 46 -17
54 -17 26 0 68 -40 68 -65 0 -12 8 -26 18 -29 9 -4 31 -14 47 -23 17 -9 48
-19 70 -23 37 -5 40 -7 40 -37 0 -28 3 -31 22 -27 16 4 29 -2 48 -22 26 -28
26 -28 6 -36 -12 -4 -21 -14 -21 -22 0 -8 -10 -16 -22 -18 -18 -2 -25 -13 -33
-46 -6 -24 -13 -43 -15 -42 -46 7 -62 22 -40 35 16 10 11 45 -7 51 -10 3 -26
10 -36 15 -22 12 -19 14 -39 -28 -9 -19 -14 -50 -12 -79 3 -54 -1 -65 -21 -58
-10 4 -12 12 -4 31 5 13 9 31 9 39 0 20 -46 18 -55 -3 -6 -17 -7 -17 -16 0 -8
13 -7 24 4 40 7 12 16 34 19 48 8 42 -33 25 -58 -25 -11 -22 -28 -43 -38 -44
-15 -3 -17 4 -15 57 1 33 -1 64 -4 68 -4 3 -7 1 -7 -5 0 -26 -31 -10 -37 18
-3 17 -14 35 -24 41 -12 6 -19 21 -19 40 0 24 -3 30 -16 25 -9 -3 -27 -9 -41
-12 -23 -6 -25 -5 -18 17 4 13 16 39 27 57 l20 32 -31 0 c-24 0 -31 -4 -31
-19 0 -10 -9 -30 -20 -44 -11 -14 -20 -30 -20 -36 0 -6 -6 -11 -14 -11 -8 0
-16 -6 -19 -12 -2 -7 -8 -10 -12 -6 -4 4 4 23 19 42 14 19 26 44 26 55 0 12 3
21 8 21 4 0 15 19 25 43 16 40 16 46 2 80 -16 38 -40 48 -62 26 -13 -13 -73
-3 -73 12 0 6 12 20 26 32 l26 22 -22 28 c-17 21 -20 34 -15 55 5 15 8 57 9
94 1 58 4 70 24 83 24 18 29 44 10 63 -10 10 -10 15 2 22 8 5 23 10 33 10 11
0 30 9 44 20 14 11 31 20 38 20 7 0 25 10 41 23 15 12 45 27 67 32 51 13 158
12 225 -3z m3226 -12 c13 -12 -9 -267 -25 -286 -12 -14 -14 -13 -21 11 -4 15
-10 71 -14 124 -4 53 -13 108 -20 122 -12 24 -11 27 9 37 22 10 54 7 71 -8z
m-8075 -87 l-24 -48 -3 38 c-4 43 23 86 42 67 6 -6 2 -25 -15 -57z m2919 43
c12 -12 11 -17 -8 -36 -16 -16 -25 -40 -29 -80 -4 -32 -15 -69 -24 -83 -9 -15
-17 -35 -17 -45 0 -10 -7 -33 -16 -50 -8 -17 -19 -54 -23 -82 -4 -28 -11 -54
-15 -58 -13 -12 -37 31 -31 53 4 11 6 27 6 35 -7 87 -11 345 -7 357 5 13 18
14 78 9 40 -3 79 -12 86 -20z m5312 -50 c0 -50 -4 -77 -14 -85 -11 -9 -15 1
-20 57 -7 74 -2 102 20 102 11 0 14 -17 14 -74z m-834 -347 c3 -6 2 -15 -3
-20 -12 -12 -53 1 -53 17 0 17 46 19 56 3z m-5130 -124 c5 -12 15 -14 40 -9
30 5 34 4 34 -14 0 -25 -46 -63 -66 -55 -11 4 -14 13 -10 29 5 17 2 24 -9 24
-8 0 -15 9 -15 20 0 24 18 27 26 5z m470 -140 c21 -33 35 -52 77 -100 25 -30
35 -55 22 -55 -11 0 -55 49 -55 60 0 6 -11 21 -25 34 -14 13 -25 29 -25 36 0
7 -11 25 -25 42 -14 16 -25 35 -25 41 0 13 29 -17 56 -58z m-95 33 c15 -18 49
-82 49 -93 0 -1 -18 15 -40 35 -23 21 -40 46 -40 58 0 28 7 28 31 0z m1719
-13 c0 -8 -7 -15 -16 -15 -14 0 -14 3 -4 15 7 8 14 15 16 15 2 0 4 -7 4 -15z
m-1756 -46 c-3 -5 -10 -7 -15 -3 -5 3 -7 10 -3 15 3 5 10 7 15 3 5 -3 7 -10 3
-15z m258 -41 c30 -40 41 -68 27 -68 -6 0 -13 9 -16 20 -3 11 -8 20 -12 20 -4
0 -15 14 -24 30 -24 40 -6 38 25 -2z m445 0 c-3 -8 -6 -5 -6 6 -1 11 2 17 5
13 3 -3 4 -12 1 -19z m43 -66 c-14 -5 -16 -3 -25 28 l-7 25 21 -25 c14 -15 18
-26 11 -28z m-582 -20 c6 -18 -15 -14 -22 4 -4 10 -1 14 6 12 6 -2 14 -10 16
-16z m191 -48 c39 -57 30 -79 -10 -24 -25 35 -38 70 -25 70 3 0 18 -21 35 -46z
m1639 25 c4 -21 -37 -69 -44 -51 -9 19 -32 14 -45 -9 -8 -17 -8 -23 1 -29 14
-9 6 -40 -10 -40 -5 0 -10 10 -10 23 0 13 -5 28 -11 34 -18 18 -2 46 38 70 43
24 76 25 81 2z m-1922 -44 c-5 -14 -8 -14 -19 -3 -17 17 -27 44 -19 52 11 12
45 -32 38 -49z m2479 8 c16 -16 16 -18 -1 -30 -17 -12 -21 -11 -36 8 -10 12
-18 25 -18 30 0 15 38 10 55 -8z m-2329 -20 c20 -26 17 -35 -6 -21 -11 7 -20
18 -20 25 0 18 10 16 26 -4z m2049 7 c3 -5 1 -10 -4 -10 -6 0 -11 5 -11 10 0
6 2 10 4 10 3 0 8 -4 11 -10z m433 -18 c2 -12 -1 -22 -6 -22 -15 0 -34 28 -27
40 10 17 30 6 33 -18z m-678 -32 c0 -5 -4 -10 -10 -10 -5 0 -10 5 -10 10 0 6
5 10 10 10 6 0 10 -4 10 -10z m-1783 -90 c5 0 16 -14 25 -30 14 -25 15 -30 2
-30 -8 0 -19 11 -24 24 -5 13 -23 38 -39 55 -17 18 -31 41 -31 53 0 17 7 11
30 -25 16 -26 33 -47 37 -47z m43 44 c0 -7 7 -14 15 -18 18 -7 20 -39 3 -34
-16 6 -58 67 -58 84 0 10 5 9 20 -3 11 -10 20 -23 20 -29z m-160 15 c0 -5 -4
-9 -10 -9 -5 0 -10 7 -10 16 0 8 5 12 10 9 6 -3 10 -10 10 -16z m230 -5 c0 -8
-4 -12 -10 -9 -5 3 -10 10 -10 16 0 5 5 9 10 9 6 0 10 -7 10 -16z m5031 -41
c3 -45 -11 -66 -38 -56 -16 6 -17 27 -1 53 16 25 38 26 39 3z m-6271 -43 c0
-5 -2 -10 -4 -10 -3 0 -8 5 -11 10 -3 6 -1 10 4 10 6 0 11 -4 11 -10z m385 -6
c27 -18 33 -44 11 -44 -8 0 -21 14 -30 30 -17 34 -15 36 19 14z m-95 -14 c0
-5 -2 -10 -4 -10 -3 0 -8 5 -11 10 -3 6 -1 10 4 10 6 0 11 -4 11 -10z m44 -36
c4 -11 1 -14 -11 -12 -9 2 -18 9 -21 16 -6 18 25 15 32 -4z m126 -34 c0 -6 -9
-10 -20 -10 -13 0 -20 7 -20 20 0 18 3 19 20 10 11 -6 20 -15 20 -20z m-2110
-332 c0 -59 4 -109 8 -112 13 -8 263 -38 276 -33 7 3 16 27 19 54 3 27 21 80
39 118 32 69 34 70 74 73 38 3 43 0 61 -31 19 -31 26 -35 79 -41 107 -12 111
-43 17 -117 -66 -50 -109 -88 -146 -126 -71 -74 -148 -164 -185 -217 l-44 -63
-111 -6 c-83 -5 -115 -4 -123 6 -23 24 -13 548 12 617 13 35 24 -20 24 -122z
m1152 -30 c-6 -24 -32 -56 -32 -41 0 14 24 63 32 63 3 0 3 -10 0 -22z m-201
-347 c-6 -11 -11 -31 -11 -45 0 -19 -5 -26 -20 -26 -11 0 -20 2 -20 5 0 9 35
80 45 92 14 16 18 -2 6 -26z m-56 -138 c-4 -27 -11 -49 -16 -51 -5 -2 -9 -10
-9 -18 0 -8 -4 -14 -10 -14 -5 0 -10 6 -10 14 0 8 5 18 10 21 6 3 10 19 10 35
0 35 9 60 22 60 7 0 8 -18 3 -47z m-148 0 c-3 -10 -5 -4 -5 12 0 17 2 24 5 18
2 -7 2 -21 0 -30z m-227 -84 c0 -5 -7 -9 -15 -9 -15 0 -20 12 -9 23 8 8 24 -1
24 -14z m178 -67 c2 -14 -2 -22 -12 -22 -19 0 -29 17 -22 36 8 22 30 12 34
-14z m-217 -52 c-5 -24 -9 -31 -15 -21 -5 7 -3 23 5 37 16 31 19 27 10 -16z
m359 1 c0 -6 -9 -11 -21 -11 -15 0 -19 4 -15 16 3 9 6 20 6 26 0 5 7 3 15 -6
8 -8 15 -19 15 -25z m-210 19 c0 -6 -4 -18 -9 -28 -5 -9 -12 -25 -15 -34 -3
-10 -10 -18 -16 -18 -11 0 -4 41 12 73 9 18 28 23 28 7z m70 -14 c0 -12 -32
-77 -36 -73 -11 10 9 77 22 77 8 0 14 -2 14 -4z m-516 -49 c-9 -36 -22 -25
-16 13 3 20 8 28 14 22 5 -5 6 -21 2 -35z m236 13 c0 -16 -4 -30 -9 -30 -12 0
-24 37 -16 50 12 20 25 10 25 -20z m-107 3 c-7 -2 -19 -2 -25 0 -7 3 -2 5 12
5 14 0 19 -2 13 -5z m504 -45 c-3 -7 -5 -2 -5 12 0 14 2 19 5 13 2 -7 2 -19 0
-25z m-77 -12 c0 -8 -4 -18 -10 -21 -5 -3 -10 -15 -10 -26 0 -10 -4 -19 -10
-19 -5 0 -11 -15 -11 -32 -2 -32 -2 -32 -6 -5 -3 16 3 44 11 62 9 18 16 38 16
44 0 6 5 11 10 11 6 0 10 -6 10 -14z m-168 -80 c-6 -12 -13 -29 -16 -39 -7
-20 -26 -14 -26 9 0 8 10 36 23 62 21 46 22 46 25 18 2 -16 -1 -39 -6 -50z
m-362 25 c0 -6 -4 -13 -10 -16 -5 -3 -10 1 -10 9 0 9 5 16 10 16 6 0 10 -4 10
-9z m580 -19 c0 -4 -4 -12 -9 -17 -5 -6 -11 -19 -14 -30 -3 -14 -5 -10 -6 11
0 17 2 34 6 37 9 10 23 9 23 -1z m-296 -50 c-7 -25 -44 -83 -44 -68 0 4 7 29
16 57 17 50 39 59 28 11z m133 6 c-3 -8 -6 -5 -6 6 -1 11 2 17 5 13 3 -3 4
-12 1 -19z m-347 -2 c0 -3 -4 -8 -10 -11 -5 -3 -10 -1 -10 4 0 6 5 11 10 11 6
0 10 -2 10 -4z m417 -38 c-3 -8 -6 -5 -6 6 -1 11 2 17 5 13 3 -3 4 -12 1 -19z
m43 -93 c-21 -25 -29 -6 -12 28 16 30 17 31 20 9 2 -13 -2 -30 -8 -37z m-354
-2 c-11 -11 -19 6 -11 24 8 17 8 17 12 0 3 -10 2 -21 -1 -24z m56 -55 c-15
-15 -26 -4 -18 18 5 13 9 15 18 6 9 -9 9 -15 0 -24z m208 15 c0 -5 -7 -17 -15
-27 -15 -20 -15 -20 -15 0 0 12 3 24 7 27 9 9 23 9 23 0z m-74 -69 c-25 -18
-39 -5 -30 30 l7 28 21 -22 c21 -21 21 -21 2 -36z m-386 42 c0 -15 -14 -35
-21 -30 -15 9 -10 34 6 34 8 0 15 -2 15 -4z m320 -32 c0 -14 -3 -15 -17 -3
-10 7 -20 15 -22 16 -2 2 5 3 17 3 14 0 22 -6 22 -16z m-206 0 c9 -3 16 -11
16 -16 0 -6 -7 -8 -15 -4 -9 3 -15 0 -15 -9 0 -9 -9 -15 -23 -15 -13 0 -28 -5
-35 -12 -9 -9 -16 -9 -28 4 -15 15 -21 15 -65 2 -37 -11 -54 -12 -70 -4 -16 9
-18 14 -9 25 8 10 18 12 29 6 27 -13 165 -2 174 15 9 15 17 17 41 8z m343 -20
c1 -5 -2 -16 -7 -24 -12 -20 -35 2 -26 25 6 17 27 16 33 -1z m-210 -54 c1 -11
-2 -20 -8 -20 -5 0 -9 -16 -9 -35 0 -19 -4 -35 -10 -35 -5 0 -10 5 -10 10 0 6
-18 10 -40 10 -43 0 -43 0 -34 24 4 11 14 13 34 10 23 -5 31 -1 41 17 9 19 23
34 34 39 1 0 1 -9 2 -20z m52 -27 c-1 -45 -1 -46 -10 -18 -8 27 -4 65 7 65 2
0 4 -21 3 -47z m-169 22 c0 -8 -4 -15 -10 -15 -5 0 -7 7 -4 15 4 8 8 15 10 15
2 0 4 -7 4 -15z m330 -11 c0 -8 -4 -14 -10 -14 -5 0 -10 -13 -10 -30 0 -32
-11 -38 -28 -17 -15 18 16 87 35 80 7 -3 13 -11 13 -19z m-90 -68 c0 -37 -15
-55 -32 -38 -8 8 -7 20 2 41 17 41 30 39 30 -3z m134 -105 c-4 -9 -8 -22 -8
-30 -1 -8 -7 -16 -14 -19 -17 -5 -10 80 9 123 l14 30 3 -44 c2 -24 0 -51 -4
-60z m-489 79 c3 -5 1 -10 -4 -10 -6 0 -11 5 -11 10 0 6 2 10 4 10 3 0 8 -4
11 -10z m-68 -37 c-9 -9 -20 -13 -24 -9 -4 4 1 14 11 22 25 18 35 8 13 -13z
m-87 -2 c0 -11 3 -28 7 -38 6 -15 4 -16 -9 -5 -8 7 -23 10 -32 6 -20 -8 -21 5
0 34 19 27 34 28 34 3z m200 -2 c0 -11 -4 -18 -10 -14 -5 3 -7 12 -3 20 7 21
13 19 13 -6z m225 11 c10 -16 -15 -80 -30 -80 -21 0 -23 20 -5 56 16 35 25 41
35 24z m62 -60 c-11 -57 -28 -59 -20 -2 7 52 11 64 22 58 4 -3 4 -28 -2 -56z
m-147 -5 c0 -42 -3 -55 -15 -55 -17 0 -20 25 -5 35 6 3 10 22 10 41 0 19 2 34
5 34 3 0 5 -25 5 -55z m218 -17 c-3 -50 -23 -54 -24 -5 0 37 3 47 17 47 6 0 9
-19 7 -42z m-372 2 c19 0 18 -19 -3 -27 -10 -4 -23 2 -35 16 -21 27 -14 49 8
26 9 -8 22 -15 30 -15z m-46 -55 c0 -9 -9 -15 -25 -15 -16 0 -25 6 -25 15 0 9
9 15 25 15 16 0 25 -6 25 -15z m119 -12 c-7 -10 -14 -20 -16 -22 -1 -1 -7 0
-13 4 -14 9 6 35 27 35 13 0 13 -3 2 -17z m210 -25 c-2 -38 -16 -101 -18 -77
0 9 -7 22 -15 28 -11 10 -11 17 2 46 20 44 32 45 31 3z m-76 -55 c5 -40 3 -53
-7 -53 -24 0 -40 28 -27 44 9 11 9 19 -1 36 -11 17 -11 22 2 30 21 13 27 3 33
-57z m8427 13 c0 -33 -25 -53 -45 -36 -16 13 -20 42 -8 53 3 4 17 7 30 7 18 0
23 -6 23 -24z m-8610 -1 c7 -8 20 -15 29 -15 14 0 17 -7 13 -30 -5 -35 -19
-40 -24 -7 -2 14 -11 23 -24 25 -12 2 -30 12 -40 23 -16 18 -16 19 8 19 14 0
31 -7 38 -15z m-246 -30 c-6 -16 -24 -21 -24 -7 0 11 11 22 21 22 5 0 6 -7 3
-15z m362 -11 c-3 -9 -6 -29 -6 -45 0 -34 -10 -37 -29 -8 -10 18 -11 26 0 45
14 27 45 34 35 8z m269 -22 c-3 -4 -10 0 -15 8 -6 9 -5 17 3 22 13 8 24 -19
12 -30z m8328 -19 c-4 -24 -11 -33 -24 -33 -26 0 -27 65 -2 79 23 13 32 -4 26
-46z m-8896 0 c-3 -10 -5 -2 -5 17 0 19 2 27 5 18 2 -10 2 -26 0 -35z m8490
11 c3 -9 0 -20 -8 -25 -21 -13 -29 -11 -29 9 0 33 26 44 37 16z m132 2 c6 -7
9 -21 5 -30 -3 -9 1 -27 10 -41 9 -13 16 -31 16 -40 0 -8 8 -15 18 -15 9 0 26
-3 37 -6 16 -4 23 2 32 27 11 29 15 31 45 25 18 -4 55 -10 81 -15 45 -7 72
-25 61 -42 -9 -14 -111 -41 -170 -44 -52 -2 -66 1 -85 18 -12 12 -31 22 -42
22 -23 2 -37 22 -37 55 0 16 -8 29 -22 35 -31 14 -34 39 -6 53 31 15 44 14 57
-2z m-8682 -103 c-9 -9 -19 -14 -23 -11 -10 10 6 28 24 28 15 0 15 -1 -1 -17z
m8343 -727 c-5 -14 -8 -86 -7 -160 2 -150 0 -170 -23 -156 -12 7 -12 18 -4 59
6 28 7 51 4 51 -10 0 -21 140 -14 177 5 25 24 44 51 52 1 1 -2 -10 -7 -23z
m47 -28 c16 -20 23 -62 14 -77 -11 -17 -19 -3 -16 27 1 12 -4 22 -11 22 -7 0
-12 9 -11 20 1 23 10 26 24 8z m109 -99 c4 -7 0 -15 -8 -20 -20 -11 -12 -55
14 -73 18 -13 19 -16 5 -43 l-15 -28 -11 28 c-7 17 -23 32 -40 38 -26 9 -69
55 -59 64 11 10 85 45 95 45 6 0 15 -5 19 -11z m74 -18 c0 -21 -29 -36 -42
-23 -6 6 -3 16 7 26 22 21 35 20 35 -3z m-9306 -67 c21 -8 21 -30 0 -38 -20
-8 -54 11 -54 29 0 15 26 20 54 9z m146 -28 c0 -16 -47 -49 -59 -41 -10 6 -3
44 11 62 12 15 48 -1 48 -21z m9440 -111 c0 -60 -15 -66 -37 -18 -18 38 -16
71 5 76 28 6 32 -1 32 -58z m-422 -13 c2 -18 -1 -32 -7 -32 -6 0 -12 3 -12 8
-8 48 -7 63 4 59 7 -2 13 -18 15 -35z m-69 -79 c13 -15 19 -34 16 -45 -4 -11
-1 -18 7 -18 12 -1 58 -63 58 -79 0 -19 -49 -64 -64 -58 -20 8 -21 33 -1 41
28 10 18 51 -17 68 -25 11 -36 26 -45 57 -7 22 -13 45 -13 51 0 20 39 9 59
-17z m592 -30 c29 -28 38 -66 19 -78 -17 -10 -11 -27 8 -21 65 19 70 19 86
-11 16 -32 11 -45 -61 -147 -28 -40 -31 -49 -22 -75 13 -38 83 -85 114 -77 18
5 24 1 29 -17 10 -39 6 -52 -22 -65 -24 -11 -29 -10 -45 10 -10 12 -36 30 -58
39 -22 10 -42 25 -45 34 -3 8 -17 15 -30 15 -18 0 -24 -5 -24 -22 -1 -69 -28
-88 -54 -38 -8 17 -11 30 -6 30 5 0 17 16 26 35 16 34 16 37 -1 55 -17 19 -17
21 1 41 10 12 38 30 61 40 60 26 86 54 73 79 -6 11 -17 20 -25 20 -8 0 -18 7
-23 16 -6 11 -16 14 -30 10 -17 -6 -22 -17 -24 -54 -3 -40 -6 -47 -26 -50 -53
-8 -74 63 -27 94 13 9 27 26 31 37 3 12 13 29 20 38 10 11 12 23 6 40 -10 27
-6 49 10 49 5 0 23 -12 39 -27z m-466 -184 c4 -11 4 -23 0 -27 -7 -7 -25 17
-25 36 0 20 18 14 25 -9z m-176 -63 c7 -8 39 -17 72 -21 47 -6 68 -14 95 -37
19 -17 34 -37 34 -44 0 -12 4 -12 21 -4 11 6 32 9 47 5 17 -3 35 0 47 9 34 26
47 20 43 -21 -3 -35 -6 -38 -38 -44 -19 -3 -54 -15 -76 -27 -44 -22 -54 -20
-54 10 0 22 -10 23 -36 3 -31 -23 -42 -18 -64 30 -26 57 -60 61 -87 10 -9 -14
-8 -26 3 -47 9 -17 10 -29 4 -33 -6 -3 -10 -20 -10 -36 0 -28 -23 -50 -37 -35
-12 11 -7 176 5 188 6 6 8 30 5 59 -6 50 3 62 26 35z m423 -247 c-12 -9 -22
-22 -22 -28 0 -6 -4 -11 -10 -11 -5 0 -10 7 -10 16 0 19 41 54 54 46 5 -3 0
-13 -12 -23z m-252 -22 c0 -36 -15 -57 -41 -57 -37 0 -31 43 11 77 24 19 30
15 30 -20z m190 3 c4 -6 -6 -25 -23 -42 -24 -24 -28 -32 -16 -39 23 -15 79
-11 79 5 0 23 18 28 42 12 19 -14 19 -16 5 -22 -12 -4 -17 -18 -17 -45 0 -28
-4 -39 -15 -39 -8 0 -19 -9 -25 -20 -15 -29 -28 -25 -44 15 -12 27 -21 35 -41
35 -14 0 -43 6 -66 13 -50 15 -51 46 -1 59 33 9 35 13 32 62 -2 28 -1 29 41
23 23 -3 45 -11 49 -17z m268 -67 c2 -8 -6 -13 -22 -13 -25 0 -33 10 -19 24
10 10 36 3 41 -11z m-682 -49 c-4 -9 -9 -15 -11 -12 -3 3 -3 13 1 22 4 9 9 15
11 12 3 -3 3 -13 -1 -22z m954 -18 c0 -26 -6 -48 -15 -56 -12 -10 -15 -10 -15
3 0 9 4 19 10 22 6 4 5 13 -2 24 -12 20 -5 51 12 51 5 0 10 -20 10 -44z m-190
2 c-5 -13 -11 -40 -15 -60 -5 -31 -11 -39 -33 -44 -15 -4 -33 -13 -39 -22 -12
-14 -16 -14 -43 6 -16 12 -35 22 -42 22 -8 0 -20 9 -28 20 -16 23 -40 26 -58
8 -9 -9 -12 -9 -12 2 0 8 12 23 26 34 22 16 32 17 63 8 46 -14 76 -7 96 24 12
19 24 24 55 24 37 0 39 -1 30 -22z m60 -53 c-14 -49 -33 -55 -38 -12 -2 16 5
34 18 47 29 29 35 19 20 -35z m-770 -4 c0 -16 -24 -30 -52 -31 -5 0 -8 18 -8
40 l0 41 30 -16 c17 -9 30 -24 30 -34z m130 14 c9 -11 10 -18 1 -29 -17 -20
-48 -8 -54 20 -3 20 0 24 18 24 12 0 28 -7 35 -15z m115 -70 c0 -25 -4 -30
-25 -30 -25 0 -28 13 -15 53 9 26 40 8 40 -23z m120 -7 c-3 -13 -17 -33 -32
-46 -16 -12 -35 -29 -44 -37 -22 -21 -39 -19 -39 4 0 29 47 80 83 90 18 5 33
10 34 10 1 1 0 -9 -2 -21z m465 -14 c0 -21 -4 -33 -10 -29 -17 10 -11 65 7 65
2 0 3 -16 3 -36z m-812 -66 c-6 -18 -28 -21 -28 -4 0 9 7 16 16 16 9 0 14 -5
12 -12z m868 0 c4 -6 -2 -19 -14 -29 -12 -9 -22 -25 -22 -35 0 -9 -3 -14 -7
-11 -8 8 17 87 28 87 4 0 11 -5 15 -12z m-526 -46 c0 -19 -18 -42 -32 -42 -12
0 -9 35 4 48 17 17 28 15 28 -6z m-220 -17 c0 -19 -16 -19 -24 0 -3 9 0 15 9
15 8 0 15 -7 15 -15z m605 -15 c-3 -5 -10 -10 -16 -10 -5 0 -9 5 -9 10 0 6 7
10 16 10 8 0 12 -4 9 -10z m-500 -20 c-3 -5 -13 -10 -21 -10 -8 0 -12 5 -9 10
3 6 13 10 21 10 8 0 12 -4 9 -10z"/>
<path d="M6700 7951 c0 -6 -20 -13 -44 -16 -34 -5 -43 -11 -39 -22 4 -11 15
-13 37 -9 34 7 72 11 111 14 15 1 25 8 25 18 0 11 -6 13 -19 9 -11 -3 -22 -1
-26 5 -8 13 -45 13 -45 1z"/>
<path d="M6471 7902 c0 -36 1 -36 12 -12 6 14 15 28 20 31 5 3 -1 9 -12 12
-19 4 -21 1 -20 -31z"/>
<path d="M5745 10230 c-4 -6 5 -10 19 -10 14 0 26 5 26 10 0 6 -9 10 -19 10
-11 0 -23 -4 -26 -10z"/>
<path d="M8747 8993 c-4 -3 -7 -30 -7 -59 0 -59 -6 -64 -76 -64 -37 0 -42 2
-37 18 9 23 32 39 67 46 54 11 14 27 -47 20 -50 -6 -58 -10 -64 -32 -3 -14
-18 -36 -32 -48 -22 -19 -24 -25 -15 -45 7 -13 16 -36 22 -50 10 -26 11 -26
112 -23 57 2 106 6 111 11 12 13 -2 233 -16 233 -6 0 -15 -3 -18 -7z"/>
<path d="M83 8943 c9 -2 23 -2 30 0 6 3 -1 5 -18 5 -16 0 -22 -2 -12 -5z"/>
<path d="M1204 8769 c12 -8 25 -8 40 -1 18 9 16 11 -19 11 -33 0 -37 -1 -21
-10z"/>
<path d="M9542 7308 c-5 -7 -12 -24 -14 -38 -3 -22 2 -25 42 -34 25 -5 65 -8
90 -6 50 4 132 3 170 -2 34 -4 37 22 6 55 -29 31 -73 45 -95 28 -78 -56 -90
-58 -147 -15 -36 28 -38 28 -52 12z"/>
<path d="M10021 7274 c-22 -37 -27 -64 -12 -64 5 0 12 -11 15 -24 13 -52 62
-39 68 17 2 26 7 31 23 28 43 -7 85 -6 87 4 1 5 -17 25 -41 42 -31 24 -53 33
-81 33 -33 0 -41 -5 -59 -36z"/>
<path d="M0 7221 c0 -40 1 -41 36 -41 31 0 35 3 32 22 -2 12 -18 30 -35 41
l-33 19 0 -41z"/>
<path d="M3870 7240 c-13 -8 -13 -12 -1 -32 18 -29 33 -59 60 -123 32 -74 36
-80 60 -83 15 -2 21 2 21 15 0 24 19 43 43 43 25 0 74 -36 82 -59 3 -10 15
-21 25 -24 17 -4 20 -14 20 -70 0 -36 5 -69 11 -72 11 -7 6 -173 -6 -246 -4
-23 -3 -39 4 -43 17 -11 13 -41 -9 -69 -24 -30 -25 -44 -4 -86 9 -18 14 -44
11 -58 -8 -45 -1 -52 41 -38 l37 13 -1 124 c-1 200 -24 601 -36 616 -6 7 -8
34 -5 67 4 35 2 57 -6 62 -6 3 -13 1 -15 -5 -2 -7 -12 -12 -23 -12 -10 0 -19
-7 -19 -15 0 -33 -31 -26 -86 20 -95 77 -162 102 -204 75z m330 -205 c0 -25
-4 -45 -10 -45 -11 0 -14 49 -4 74 10 26 14 18 14 -29z"/>
<path d="M8745 7213 c-54 -14 -63 -58 -12 -66 41 -6 50 0 43 29 -6 21 -3 24
23 24 16 0 33 5 36 10 6 10 -52 12 -90 3z"/>
<path d="M5538 6544 c-16 -8 -28 -18 -28 -23 0 -5 -13 -14 -29 -21 -16 -6 -53
-40 -83 -73 -29 -34 -55 -64 -59 -67 -3 -3 -11 -15 -18 -27 -6 -13 -19 -23
-27 -23 -18 0 -234 -217 -234 -235 0 -6 -9 -20 -21 -31 -35 -32 -43 -54 -28
-82 11 -20 11 -26 2 -29 -15 -5 -18 -43 -4 -43 6 0 11 -15 13 -32 3 -29 8 -34
40 -42 41 -10 45 -8 180 114 94 85 218 297 218 372 0 59 57 178 104 217 16 14
22 41 9 41 -5 -1 -20 -8 -35 -16z"/>
<path d="M5001 5167 c0 -7 4 -21 8 -32 8 -19 8 -19 19 2 17 30 15 39 -8 40
-11 1 -20 -4 -19 -10z"/>
<path d="M9880 4194 c0 -15 22 -44 31 -39 18 12 10 45 -11 45 -11 0 -20 -3
-20 -6z"/>
<path d="M9956 4059 c5 -27 3 -44 -5 -48 -8 -5 -7 -12 3 -26 12 -16 16 -17 30
-6 11 9 16 10 16 2 0 -6 -4 -11 -10 -11 -17 0 -11 -15 27 -64 23 -30 47 -49
65 -53 27 -5 59 -37 106 -105 55 -80 52 -80 49 -1 -2 69 -3 73 -25 73 -15 0
-26 8 -32 25 -5 14 -16 25 -24 25 -19 0 -36 23 -42 57 -3 15 -10 30 -16 32 -5
2 -25 17 -44 33 -23 21 -34 39 -34 58 0 22 -6 30 -31 39 -18 6 -34 11 -36 11
-2 0 0 -18 3 -41z"/>
<path d="M10216 3911 c-3 -4 1 -17 9 -27 14 -18 14 -18 15 9 0 26 -13 36 -24
18z"/>
<path d="M9927 3809 c7 -7 15 -10 18 -7 3 3 -2 9 -12 12 -14 6 -15 5 -6 -5z"/>
<path d="M9962 3778 c2 -6 10 -14 16 -16 7 -2 10 2 6 12 -7 18 -28 22 -22 4z"/>
<path d="M10033 3708 c18 -42 33 -68 40 -68 10 0 56 -52 57 -63 0 -4 -11 -19
-24 -32 -21 -21 -22 -26 -10 -43 7 -11 25 -22 40 -25 21 -4 25 -1 21 13 -3 12
6 29 24 46 39 37 39 62 -1 56 -22 -3 -32 0 -37 14 -12 33 -87 114 -106 114 -5
0 -7 -6 -4 -12z"/>
<path d="M10220 3500 c0 -5 5 -10 10 -10 6 0 10 5 10 10 0 6 -4 10 -10 10 -5
0 -10 -4 -10 -10z"/>
<path d="M10213 3419 c-14 -14 -6 -39 13 -39 8 0 14 10 14 25 0 27 -9 32 -27
14z"/>
<path d="M10000 3411 c0 -5 7 -15 16 -22 16 -13 39 -58 36 -71 -1 -5 4 -8 12
-8 8 0 16 -6 19 -12 2 -7 7 -11 10 -8 11 10 -40 108 -62 119 -24 13 -31 14
-31 2z"/>
<path d="M10226 3232 c-4 -8 -16 -12 -25 -9 -16 4 -17 0 -7 -40 6 -28 6 -47 0
-51 -5 -4 -17 -19 -27 -34 -17 -28 -17 -28 5 -28 13 1 33 9 46 20 20 17 23 26
20 87 -2 43 -6 63 -12 55z"/>
<path d="M600 3220 c-14 -5 -51 -16 -82 -26 -44 -12 -58 -21 -58 -35 0 -22 4
-23 31 -9 27 15 59 -4 59 -34 0 -34 46 -63 73 -46 16 10 24 8 48 -9 35 -26 72
-28 67 -4 -2 10 -12 19 -23 21 -34 7 -45 23 -45 66 0 83 -12 96 -70 76z"/>
<path d="M445 3100 c-10 -11 -29 -20 -42 -20 -14 0 -22 -4 -18 -11 4 -5 12 -8
18 -6 7 2 22 0 34 -4 30 -11 83 0 90 19 7 17 -22 42 -47 42 -9 0 -25 -9 -35
-20z"/>
<path d="M9750 3012 c0 -16 7 -35 15 -42 13 -11 15 -8 15 14 0 15 -7 34 -15
42 -13 14 -15 12 -15 -14z"/>
<path d="M10228 3005 c2 -14 6 -25 8 -25 2 0 4 11 4 25 0 14 -4 25 -9 25 -4 0
-6 -11 -3 -25z"/>
<path d="M9830 2955 c-11 -13 -11 -20 0 -40 7 -13 19 -26 27 -29 11 -5 12 2 7
32 -8 47 -17 57 -34 37z"/>
<path d="M10216 2901 c-3 -5 1 -14 9 -21 13 -10 15 -9 15 9 0 21 -14 28 -24
12z"/>
<path d="M9905 2874 c-16 -12 -18 -17 -7 -32 7 -9 20 -29 30 -44 36 -57 68
-34 38 28 -9 19 -16 41 -16 49 0 19 -19 19 -45 -1z"/>
<path d="M10030 2780 c0 -5 -7 -10 -15 -10 -22 0 -18 -23 5 -38 43 -26 92 12
58 46 -15 15 -48 16 -48 2z"/>
<path d="M10176 1675 c-17 -18 -22 -30 -7 -21 9 6 28 -70 22 -89 -9 -28 -19
-91 -15 -97 11 -17 34 6 34 33 0 17 6 32 15 35 11 5 15 23 15 75 0 38 -4 69
-9 69 -5 0 -16 3 -24 6 -8 3 -22 -2 -31 -11z"/>
<path d="M9912 1387 c-13 -15 -1 -71 22 -102 24 -34 34 0 21 73 -8 42 -23 53
-43 29z"/>
<path d="M419 1148 c-5 -19 -6 -38 -1 -38 17 1 34 19 28 29 -6 10 -25 16 -27
9z"/>
<path d="M133 502 c-37 -42 -31 -56 21 -47 37 7 55 37 42 70 -9 24 -29 17 -63
-23z"/>
</g>
</svg>
